<svg width="24" height="24" viewBox="0 0 24 24" fill="none" xmlns="http://www.w3.org/2000/svg">
<path d="M19.5051 15.9311C18.9081 15.4276 18.4285 14.7996 18.0997 14.0913C17.7709 13.3829 17.6008 12.6113 17.6015 11.8303V9.59948C17.6015 6.78373 15.5099 4.45287 12.8005 4.0624V3.19823C12.8005 2.98601 12.7162 2.78249 12.5662 2.63243C12.4161 2.48237 12.2126 2.39807 12.0004 2.39807C11.7882 2.39807 11.5846 2.48237 11.4346 2.63243C11.2845 2.78249 11.2002 2.98601 11.2002 3.19823V4.0624C8.4901 4.45287 6.39929 6.78373 6.39929 9.59948V11.8303C6.3996 12.6128 6.22872 13.386 5.89864 14.0955C5.56856 14.805 5.08727 15.4337 4.48851 15.9375C4.27212 16.1241 4.11788 16.3723 4.04646 16.6489C3.97504 16.9255 3.98985 17.2174 4.08889 17.4853C4.18794 17.7533 4.3665 17.9846 4.60066 18.1483C4.83482 18.312 5.1134 18.4002 5.39909 18.4012H18.6017C19.3738 18.4012 20.002 17.7731 20.002 17.0009C20.002 16.5913 19.8235 16.204 19.5051 15.9311ZM12.0004 21.6018C12.6917 21.6009 13.3616 21.3616 13.8971 20.9244C14.4326 20.4871 14.801 19.8786 14.9402 19.2014H9.06061C9.19976 19.8786 9.56814 20.4871 10.1036 20.9244C10.6391 21.3616 11.309 21.6009 12.0004 21.6018Z" fill="white"/>
</svg>
