<svg width="24" height="24" viewBox="0 0 24 24" fill="none" xmlns="http://www.w3.org/2000/svg">
<g opacity="0.6">
<path d="M19.5051 15.9312C18.9081 15.4276 18.4285 14.7997 18.0997 14.0913C17.7709 13.383 17.6008 12.6113 17.6015 11.8304V9.59954C17.6015 6.78379 15.5099 4.45293 12.8005 4.06246V3.19829C12.8005 2.98607 12.7162 2.78255 12.5662 2.63249C12.4161 2.48243 12.2126 2.39813 12.0004 2.39813C11.7882 2.39813 11.5846 2.48243 11.4346 2.63249C11.2845 2.78255 11.2002 2.98607 11.2002 3.19829V4.06246C8.4901 4.45293 6.39929 6.78379 6.39929 9.59954V11.8304C6.3996 12.6129 6.22872 13.386 5.89864 14.0955C5.56856 14.805 5.08727 15.4338 4.48851 15.9376C4.27212 16.1241 4.11788 16.3723 4.04646 16.649C3.97504 16.9256 3.98985 17.2174 4.08889 17.4854C4.18794 17.7534 4.3665 17.9847 4.60066 18.1484C4.83482 18.3121 5.1134 18.4003 5.39909 18.4013H18.6017C19.3738 18.4013 20.002 17.7731 20.002 17.001C20.002 16.5913 19.8235 16.204 19.5051 15.9312ZM12.0004 21.6019C12.6917 21.601 13.3616 21.3617 13.8971 20.9244C14.4326 20.4871 14.801 19.8786 14.9402 19.2014H9.06061C9.19976 19.8786 9.56814 20.4871 10.1036 20.9244C10.6391 21.3617 11.309 21.601 12.0004 21.6019Z" fill="#64748b"/>
</g>
</svg>
