<svg width="24" height="24" viewBox="0 0 24 24" fill="none" xmlns="http://www.w3.org/2000/svg">
<path d="M9.93745 3H4.31245C3.58873 3 3 3.58873 3 4.31245V7.68745C3 8.41132 3.58873 9.00005 4.31245 9.00005H9.93745C10.6613 9.00005 11.25 8.41132 11.25 7.68745V4.31245C11.25 3.58873 10.6613 3 9.93745 3ZM9.93745 10.5H4.31245C3.58873 10.5 3 11.0887 3 11.8125V19.6875C3 20.4113 3.58873 21 4.31245 21H9.93745C10.6613 21 11.25 20.4113 11.25 19.6875V11.8125C11.25 11.0887 10.6613 10.5 9.93745 10.5ZM19.6875 15H14.0625C13.3387 15 12.75 15.5887 12.75 16.3125V19.6875C12.75 20.4113 13.3387 21 14.0625 21H19.6875C20.4113 21 21 20.4113 21 19.6875V16.3125C21 15.5887 20.4113 15 19.6875 15ZM19.6875 3H14.0625C13.3387 3 12.75 3.58873 12.75 4.31245V12.1875C12.75 12.9113 13.3387 13.5 14.0625 13.5H19.6875C20.4113 13.5 21 12.9113 21 12.1875V4.31245C21 3.58873 20.4113 3 19.6875 3Z" fill="#F3AF3D"/>
</svg>
