<svg width="24" height="24" viewBox="0 0 24 24" fill="none" xmlns="http://www.w3.org/2000/svg">
<path d="M20.0665 9.74385C19.2059 9.74385 18.4047 10.0021 17.7355 10.4446C18.824 11.1238 19.7074 12.1025 20.2683 13.265H23.2821C23.8017 13.265 24.149 12.7293 23.9366 12.2551C23.2744 10.7765 21.7888 9.74385 20.0665 9.74385ZM20.0665 8.31051C21.0373 8.31051 21.8271 7.52071 21.8271 6.54993C21.8271 5.5791 21.0373 4.78931 20.0665 4.78931C19.0957 4.78931 18.3059 5.5791 18.3059 6.54993C18.3059 7.52071 19.0957 8.31051 20.0665 8.31051ZM14.1565 10.854C12.8515 10.854 11.6543 11.324 10.7249 12.1034C12.2806 12.8366 13.5838 14.0203 14.465 15.4854H18.5608C19.0453 15.4854 19.394 15.0135 19.2443 14.5528C18.5476 12.4085 16.5301 10.854 14.1565 10.854ZM14.1565 9.4207C15.4334 9.4207 16.4722 8.3819 16.4722 7.10503C16.4722 5.8281 15.4334 4.78931 14.1565 4.78931C12.8796 4.78931 11.8408 5.8281 11.8408 7.10503C11.8408 8.3819 12.8796 9.4207 14.1565 9.4207ZM7.05243 12.7166C3.62108 12.7166 0.741878 15.1255 0.0175657 18.3412C-0.0829343 18.7873 0.260753 19.2104 0.718019 19.2104H13.3868C13.8441 19.2104 14.1878 18.7873 14.0873 18.3412C13.3629 15.1255 10.4837 12.7166 7.05243 12.7166ZM10.2994 8.03629C10.2994 6.2459 8.84282 4.78931 7.05243 4.78931C5.26208 4.78931 3.80549 6.2459 3.80549 8.03629C3.80549 9.82668 5.26203 11.2832 7.05243 11.2832C8.84277 11.2832 10.2994 9.82668 10.2994 8.03629Z" fill="white"/>
</svg>
