<svg width="24" height="24" viewBox="0 0 24 24" fill="none" xmlns="http://www.w3.org/2000/svg">
<path d="M20.0665 9.74396C19.2059 9.74396 18.4047 10.0022 17.7355 10.4447C18.824 11.1239 19.7074 12.1026 20.2683 13.2651H23.2821C23.8017 13.2651 24.149 12.7294 23.9366 12.2552C23.2744 10.7766 21.7888 9.74396 20.0665 9.74396ZM20.0665 8.31062C21.0373 8.31062 21.8271 7.52082 21.8271 6.55004C21.8271 5.57921 21.0373 4.78941 20.0665 4.78941C19.0957 4.78941 18.3059 5.57921 18.3059 6.55004C18.3059 7.52082 19.0957 8.31062 20.0665 8.31062ZM14.1565 10.8541C12.8515 10.8541 11.6543 11.3241 10.7249 12.1035C12.2806 12.8367 13.5838 14.0204 14.465 15.4855H18.5608C19.0453 15.4855 19.394 15.0136 19.2443 14.5529C18.5476 12.4086 16.5301 10.8541 14.1565 10.8541ZM14.1565 9.4208C15.4334 9.4208 16.4722 8.38201 16.4722 7.10513C16.4722 5.82821 15.4334 4.78941 14.1565 4.78941C12.8796 4.78941 11.8408 5.82821 11.8408 7.10513C11.8408 8.38201 12.8796 9.4208 14.1565 9.4208ZM7.05243 12.7167C3.62108 12.7167 0.741878 15.1256 0.0175657 18.3413C-0.0829343 18.7874 0.260753 19.2106 0.718019 19.2106H13.3868C13.8441 19.2106 14.1878 18.7874 14.0873 18.3413C13.3629 15.1256 10.4837 12.7167 7.05243 12.7167ZM10.2994 8.0364C10.2994 6.24601 8.84282 4.78941 7.05243 4.78941C5.26208 4.78941 3.80549 6.24601 3.80549 8.0364C3.80549 9.82679 5.26203 11.2833 7.05243 11.2833C8.84277 11.2833 10.2994 9.82679 10.2994 8.0364Z" fill="#F3AF3D"/>
</svg>
