<svg width="24" height="18" viewBox="0 0 24 18" fill="none" xmlns="http://www.w3.org/2000/svg">
<path d="M14.2773 16.85L13.2223 16.15C13.1536 16.1042 13.0973 16.0421 13.0585 15.9692C13.0197 15.8964 12.9995 15.815 12.9998 15.7325V9.5H10.9998V15.7325C10.9998 15.8148 10.9795 15.8958 10.9407 15.9684C10.9018 16.041 10.8457 16.1028 10.7773 16.1485L9.72226 16.85C9.6538 16.8957 9.59767 16.9575 9.55886 17.0301C9.52005 17.1027 9.49974 17.1837 9.49976 17.266V17.5C9.49976 17.6326 9.55243 17.7598 9.6462 17.8536C9.73997 17.9473 9.86715 18 9.99976 18H13.9998C14.1324 18 14.2595 17.9473 14.3533 17.8536C14.4471 17.7598 14.4998 17.6326 14.4998 17.5V17.2675C14.5 17.185 14.4798 17.1036 14.441 17.0308C14.4022 16.9579 14.3459 16.8958 14.2773 16.85Z" fill="white"/>
<path d="M18.4998 6.5H4.99976C4.72361 6.5 4.49976 6.72386 4.49976 7V8C4.49976 8.27614 4.72361 8.5 4.99976 8.5H18.4998C18.7759 8.5 18.9998 8.27614 18.9998 8V7C18.9998 6.72386 18.7759 6.5 18.4998 6.5Z" fill="white"/>
<path d="M12.4998 1.527V1H12.9998C13.1324 1 13.2595 0.947322 13.3533 0.853553C13.4471 0.759785 13.4998 0.632608 13.4998 0.5C13.4998 0.367392 13.4471 0.240215 13.3533 0.146447C13.2595 0.0526785 13.1324 0 12.9998 0H10.9998C10.8671 0 10.74 0.0526785 10.6462 0.146447C10.5524 0.240215 10.4998 0.367392 10.4998 0.5C10.4998 0.632608 10.5524 0.759785 10.6462 0.853553C10.74 0.947322 10.8671 1 10.9998 1H11.4998V1.527C10.439 1.63479 9.44031 2.07822 8.64896 2.79277C7.85762 3.50732 7.3149 4.45572 7.09975 5.5H16.8997C16.6846 4.45572 16.1419 3.50732 15.3505 2.79277C14.5592 2.07822 13.5605 1.63479 12.4998 1.527ZM11.3498 3.5705C10.6615 3.72411 10.049 4.11426 9.61875 4.673C9.53806 4.77829 9.41885 4.84722 9.28734 4.86461C9.15583 4.882 9.02279 4.84644 8.9175 4.76575C8.81221 4.68506 8.74329 4.56584 8.72589 4.43433C8.7085 4.30282 8.74406 4.16979 8.82475 4.0645C9.39844 3.31927 10.2154 2.79889 11.1333 2.594C11.1974 2.57978 11.2637 2.57834 11.3283 2.58974C11.393 2.60114 11.4548 2.62517 11.5102 2.66046C11.5656 2.69575 11.6135 2.7416 11.6512 2.7954C11.6888 2.84919 11.7155 2.90988 11.7298 2.974C11.744 3.03812 11.7454 3.10441 11.734 3.16909C11.7226 3.23376 11.6986 3.29556 11.6633 3.35095C11.628 3.40634 11.5822 3.45424 11.5284 3.49191C11.4746 3.52958 11.4139 3.55628 11.3498 3.5705ZM23.7498 5.3395C23.6561 5.23277 23.5408 5.14727 23.4114 5.08872C23.2821 5.03017 23.1417 4.99993 22.9998 5H22.4603C22.2411 5.00115 22.0285 5.07424 21.8549 5.20802C21.6814 5.34181 21.5566 5.52889 21.4998 5.7405L20.2062 10.5715H17.1217C16.7899 10.5718 16.4676 10.6826 16.2056 10.8862C15.9436 11.0899 15.7569 11.375 15.6748 11.6965L15.5323 12.25C15.4941 12.3977 15.4903 12.5522 15.521 12.7016C15.5518 12.851 15.6163 12.9914 15.7097 13.1121C15.8031 13.2327 15.9228 13.3304 16.0598 13.3976C16.1967 13.4649 16.3472 13.4999 16.4998 13.5H16.5343L15.5688 17.379C15.5529 17.4428 15.5498 17.509 15.5595 17.574C15.5693 17.639 15.5918 17.7014 15.6257 17.7576C15.6596 17.8139 15.7042 17.863 15.7571 17.902C15.8099 17.941 15.87 17.9692 15.9338 17.985C15.9733 17.9951 16.0139 18.0002 16.0548 18C16.1663 18 16.2746 17.9627 16.3625 17.894C16.4504 17.8253 16.5128 17.7292 16.5398 17.621L17.5632 13.5H21.1497L22.0627 17.6085C22.0874 17.7194 22.149 17.8185 22.2376 17.8897C22.3261 17.9609 22.4362 17.9998 22.5497 18C22.5864 17.9999 22.623 17.9959 22.6588 17.988C22.7229 17.9738 22.7836 17.9471 22.8374 17.9094C22.8912 17.8718 22.937 17.8239 22.9723 17.7685C23.0076 17.7131 23.0316 17.6513 23.043 17.5866C23.0544 17.5219 23.053 17.4556 23.0387 17.3915L22.1567 13.4235C22.4265 13.3376 22.6664 13.1771 22.8487 12.9606C23.0311 12.7441 23.1484 12.4804 23.1873 12.2L23.9913 6.134C24.0101 5.992 23.9983 5.84762 23.9566 5.71057C23.915 5.57352 23.8444 5.44699 23.7498 5.3395ZM8.28975 13.1135C8.38376 12.9929 8.44875 12.8523 8.47971 12.7026C8.51066 12.5528 8.50674 12.398 8.46825 12.25L8.32525 11.697C8.2433 11.3755 8.05665 11.0904 7.79474 10.8867C7.53282 10.683 7.21055 10.5723 6.87875 10.572H3.79625L2.50275 5.7405C2.44578 5.52848 2.32062 5.34109 2.14658 5.20727C1.97254 5.07344 1.75929 5.0006 1.53975 5H0.996751C0.854555 5.00046 0.714092 5.03125 0.584735 5.09029C0.455379 5.14934 0.340103 5.2353 0.246599 5.34243C0.153096 5.44956 0.0835157 5.57541 0.0425009 5.71156C0.00148616 5.84771 -0.0100197 5.99105 0.00875106 6.132L0.812751 12.2C0.851059 12.4805 0.967972 12.7445 1.14997 12.9613C1.33198 13.1782 1.57164 13.3391 1.84125 13.4255L0.959251 17.3915C0.930475 17.521 0.954318 17.6566 1.02554 17.7685C1.09675 17.8804 1.20951 17.9595 1.339 17.9883C1.46849 18.017 1.60411 17.9932 1.71602 17.922C1.82794 17.8508 1.90698 17.738 1.93575 17.6085L2.84975 13.5H6.43775L7.46325 17.621C7.4903 17.7295 7.55292 17.8257 7.64111 17.8944C7.7293 17.9631 7.83796 18.0003 7.94975 18C7.99056 18.0002 8.03122 17.9951 8.07075 17.985C8.13448 17.9692 8.19446 17.9409 8.24727 17.9019C8.30008 17.8628 8.34468 17.8138 8.37852 17.7575C8.41237 17.7012 8.4348 17.6388 8.44454 17.5739C8.45427 17.509 8.45111 17.4427 8.43525 17.379L7.46725 13.5H7.50225C7.65438 13.5004 7.80455 13.4657 7.94112 13.3987C8.07769 13.3317 8.19698 13.2341 8.28975 13.1135Z" fill="white"/>
</svg>
